# xmcd
#
# Track frame offsets: 
#        150
#        13752
#        24727
#        37947
#        51605
#        62107
#        74697
#        96495
#        106945
#        120110
#        130700
#        144407
#        155462
#        175480
#        186805
#        197175
#        214175
#        225375
#        234747
#        245590
#        258322
#        268232
#        278525
#        288682
#        299847
#
# Disc length: 4161 seconds
#
# Revision: 5
# Processed by: cddbd v1.5.2PL0 Copyright (c) Steve Scherf et al.
# Submitted via: ExactAudioCopyFreeDBPlugin 1.0
#
DISCID=89103f19
DTITLE=Various Artist - The Fire-Fury Records Story [Capricon box set
DTITLE=]
DYEAR=1992
DGENRE=Rhythm and Blues
TTITLE0=Tarheel Slim - Number Nine Train
TTITLE1=Wilbert Harrison - Kansas City
TTITLE2=Buster Brown - Fannie Mae
TTITLE3=Tarheel Slim and Little Ann - Much Too Late
TTITLE4=Arthur "Big Boy" Crudup - That's All Right
TTITLE5=Elmore James - The Sky is Crying
TTITLE6=Bobby Marchan - There is Something on Your Mind, Pts. 1 and 2
TTITLE7=Mighty Joe Young - Why Baby
TTITLE8=Elmore James - Dust My Broom
TTITLE9=Willis Jackson - Good to the Bone
TTITLE10=Lightnin' Hopkins - Mojo Hand
TTITLE11=Buster Brown - Is You is or is You Ain't (My Baby)
TTITLE12=Lightnin' Hopkins - Glory Be
TTITLE13=Sam Myers - You Don't Have to Go
TTITLE14=The Jay Cees - Just Say the Word
TTITLE15=Lightnin' Hopkins - Santa
TTITLE16=The Upsetters - Jaywalking
TTITLE17=Gladys Knight and The Pips - Every Beat of My Heart
TTITLE18=Lee Dorsey - Ya Ya
TTITLE19=Gladys Knight and The Pips - Letter Full of Tears
TTITLE20=Lee Dorsey - Do Re Mi
TTITLE21=Gladys Knight and The Pips - Morning, Noon and Night
TTITLE22=Buster Brown - Broadway on Fire
TTITLE23=Lee Dorsey - People Gonna Talk
TTITLE24=Wilbert Harrison - Let's Stick Together
EXTD=
EXTT0=
EXTT1=
EXTT2=
EXTT3=
EXTT4=
EXTT5=
EXTT6=
EXTT7=
EXTT8=
EXTT9=
EXTT10=
EXTT11=
EXTT12=
EXTT13=
EXTT14=
EXTT15=
EXTT16=
EXTT17=
EXTT18=
EXTT19=
EXTT20=
EXTT21=
EXTT22=
EXTT23=
EXTT24=
PLAYORDER=
